<svg width="4" height="6" viewBox="0 0 4 6" fill="none" xmlns="http://www.w3.org/2000/svg">
<path d="M0 6V5.47977L1.95376 3.34104C2.18304 3.09056 2.37187 2.87283 2.52023 2.68786C2.66859 2.50096 2.77842 2.32563 2.84971 2.16185C2.92293 1.99615 2.95954 1.82274 2.95954 1.64162C2.95954 1.43353 2.90944 1.25337 2.80925 1.10116C2.71098 0.94894 2.57611 0.831407 2.40462 0.748555C2.23314 0.665703 2.04046 0.624278 1.82659 0.624278C1.59923 0.624278 1.40077 0.671484 1.23121 0.765896C1.06358 0.858382 0.933526 0.988439 0.84104 1.15607C0.750482 1.3237 0.705202 1.52023 0.705202 1.74566H0.0231213C0.0231213 1.39884 0.103083 1.09441 0.263006 0.83237C0.422929 0.570327 0.640655 0.366088 0.916185 0.219653C1.19364 0.0732177 1.50482 0 1.84971 0C2.19653 0 2.50385 0.0732177 2.77168 0.219653C3.0395 0.366088 3.24952 0.563584 3.40173 0.812139C3.55395 1.06069 3.63006 1.33719 3.63006 1.64162C3.63006 1.85934 3.59056 2.07225 3.51156 2.28035C3.43449 2.48651 3.29961 2.71676 3.10694 2.9711C2.91618 3.22351 2.65125 3.53179 2.31214 3.89595L0.982659 5.31792V5.36416H3.7341V6H0Z" fill="white"/>
</svg>
