<svg width="29" height="29" viewBox="0 0 29 29" fill="none" xmlns="http://www.w3.org/2000/svg">
<path fill-rule="evenodd" clip-rule="evenodd" d="M0.465892 0.119504C-0.15082 0.495234 -0.156493 1.49616 0.456191 1.83329C0.555128 1.88772 1.50218 2.29308 2.5607 2.73408C3.61923 3.17508 4.50586 3.57044 4.53099 3.61265C4.55618 3.65486 4.7022 4.08232 4.85554 4.56252C5.10862 5.35504 7.85741 13.7715 8.91526 16.9929L9.34907 18.3141L9.17531 18.4584C9.07972 18.5378 8.96699 18.6749 8.92479 18.7631C8.88264 18.8512 8.53324 19.8446 8.14844 20.9706C7.39762 23.1673 7.35552 23.3675 7.57546 23.6954C7.7553 23.9634 8.0196 24.0716 8.49449 24.0716H8.90414L8.81031 24.2071C8.75868 24.2816 8.62406 24.5414 8.51105 24.7844C8.12302 25.6191 8.12875 26.5023 8.52785 27.3712C8.71857 27.7864 9.19306 28.3241 9.59562 28.5813C11.1293 29.5608 13.0897 28.7509 13.6911 26.8892C13.9365 26.1295 13.7561 25.0067 13.2802 24.3315C13.2059 24.2261 13.145 24.1245 13.145 24.1057C13.145 24.087 14.4985 24.0716 16.1527 24.0716H19.1603L18.9645 24.3737C18.6721 24.825 18.526 25.2915 18.4925 25.8813C18.444 26.7333 18.7268 27.5142 19.3064 28.1294C20.3857 29.275 22.0991 29.2909 23.181 28.1653C23.7706 27.5519 24.0376 26.8963 24.0366 26.0642C24.0358 25.3678 23.8608 24.7938 23.4889 24.2673L23.3507 24.0716L23.8499 24.0715C24.2131 24.0714 24.4023 24.0427 24.5437 23.9661C25.0858 23.6727 25.1378 22.9257 24.6429 22.5404C24.483 22.416 24.4683 22.4157 16.9134 22.3998C12.7503 22.391 9.34419 22.3775 9.34431 22.3697C9.34442 22.3619 9.53106 21.8064 9.75912 21.1353L10.1737 19.9151L17.3284 19.9164C24.4495 19.9178 24.4841 19.9172 24.681 19.7939C24.7898 19.7257 24.9227 19.599 24.9763 19.5122C25.0298 19.4254 25.3649 18.3904 25.7209 17.2121C26.077 16.0338 26.96 13.1188 27.6832 10.7344C29.1368 5.9417 29.1411 5.92213 28.8464 5.51208C28.529 5.07042 29.3409 5.10444 19.111 5.10444C12.7378 5.10444 9.86985 5.12413 9.75912 5.16868C9.40489 5.31115 9.16447 5.68682 9.16447 6.09795C9.16447 6.42527 9.28826 6.67883 9.55239 6.89265L9.76076 7.06137L18.2802 7.09147L26.7997 7.12158L26.4735 8.20542L26.1472 9.28925L18.9796 9.31936C12.1552 9.34802 11.8037 9.35477 11.6417 9.4599C11.3598 9.64289 11.2505 9.85159 11.2273 10.2512C11.2097 10.555 11.2279 10.6477 11.3391 10.8214C11.4121 10.9355 11.5611 11.0846 11.6702 11.1526C11.867 11.2753 11.9246 11.2764 18.6904 11.2923C22.4424 11.3011 25.5118 11.3282 25.5114 11.3525C25.5109 11.3768 25.3473 11.9386 25.1479 12.601L24.7852 13.8052L18.8275 13.8354C12.8932 13.8653 12.8691 13.8659 12.7095 13.9914C12.4339 14.2083 12.2941 14.4839 12.2941 14.8107C12.2941 15.1741 12.401 15.4037 12.6725 15.6236L12.8809 15.7923L18.5158 15.8082C21.6149 15.817 24.1503 15.8441 24.1499 15.8684C24.1495 15.8928 24.0144 16.3598 23.8497 16.9062L23.5502 17.8997H17.373H11.1957L10.8701 16.9062C10.6911 16.3598 9.55818 12.8939 8.35255 9.20411C7.14693 5.51437 6.12618 2.42543 6.0842 2.33981C6.04222 2.25418 5.94799 2.12509 5.87481 2.05295C5.69129 1.87207 1.27191 0.0349642 0.948097 0.00491779C0.756463 -0.0128451 0.636252 0.0157562 0.465892 0.119504ZM11.4591 24.8151C12.3104 25.1937 12.5069 26.3663 11.8257 27.0012C11.5598 27.2488 11.2769 27.3423 10.8838 27.3121C10.2965 27.267 9.8673 26.8138 9.81329 26.1818C9.77721 25.7595 9.86276 25.4593 10.1013 25.1709C10.428 24.776 11.0216 24.6205 11.4591 24.8151ZM21.8315 24.9022C22.3986 25.2166 22.6444 25.9187 22.3961 26.5146C22.1665 27.0653 21.8093 27.3194 21.2612 27.3218C20.6666 27.3243 20.2095 26.934 20.0666 26.3017C19.8912 25.5257 20.4931 24.7391 21.2651 24.7353C21.4447 24.7344 21.6244 24.7874 21.8315 24.9022Z" fill="#468DDE"/>
</svg>
