<svg width="30" height="29" viewBox="0 0 30 29" fill="none" xmlns="http://www.w3.org/2000/svg">
<path fill-rule="evenodd" clip-rule="evenodd" d="M1.40827 0.119504C0.791563 0.495234 0.78589 1.49616 1.39857 1.83329C1.49751 1.88772 2.44456 2.29308 3.50309 2.73408C4.56161 3.17508 5.44825 3.57044 5.47338 3.61265C5.49856 3.65486 5.64459 4.08232 5.79793 4.56252C6.051 5.35504 8.7998 13.7715 9.85764 16.9929L10.2915 18.3141L10.1177 18.4584C10.0221 18.5378 9.90938 18.6749 9.86717 18.7631C9.82502 18.8512 9.47562 19.8446 9.09082 20.9706C8.34 23.1673 8.2979 23.3675 8.51785 23.6954C8.69768 23.9634 8.96199 24.0716 9.43687 24.0716H9.84652L9.75269 24.2071C9.70106 24.2816 9.56644 24.5414 9.45344 24.7844C9.0654 25.6191 9.07113 26.5023 9.47023 27.3712C9.66096 27.7864 10.1354 28.3241 10.538 28.5813C12.0717 29.5608 14.0321 28.7509 14.6335 26.8892C14.8789 26.1295 14.6985 25.0067 14.2226 24.3315C14.1482 24.2261 14.0874 24.1245 14.0874 24.1057C14.0874 24.087 15.4408 24.0716 17.0951 24.0716H20.1027L19.9069 24.3737C19.6145 24.825 19.4684 25.2915 19.4349 25.8813C19.3864 26.7333 19.6691 27.5142 20.2488 28.1294C21.3281 29.275 23.0415 29.2909 24.1234 28.1653C24.713 27.5519 24.98 26.8963 24.979 26.0642C24.9782 25.3678 24.8032 24.7938 24.4313 24.2673L24.293 24.0716L24.7923 24.0715C25.1555 24.0714 25.3446 24.0427 25.4861 23.9661C26.0282 23.6727 26.0801 22.9257 25.5853 22.5404C25.4254 22.416 25.4107 22.4157 17.8558 22.3998C13.6927 22.391 10.2866 22.3775 10.2867 22.3697C10.2868 22.3619 10.4734 21.8064 10.7015 21.1353L11.1161 19.9151L18.2708 19.9164C25.3918 19.9178 25.4264 19.9172 25.6234 19.7939C25.7322 19.7257 25.8651 19.599 25.9186 19.5122C25.9722 19.4254 26.3073 18.3904 26.6633 17.2121C27.0194 16.0338 27.9024 13.1188 28.6256 10.7344C30.0792 5.9417 30.0835 5.92213 29.7888 5.51208C29.4714 5.07042 30.2833 5.10444 20.0534 5.10444C13.6802 5.10444 10.8122 5.12413 10.7015 5.16868C10.3473 5.31115 10.1069 5.68682 10.1069 6.09795C10.1069 6.42527 10.2306 6.67883 10.4948 6.89265L10.7031 7.06137L19.2226 7.09147L27.7421 7.12158L27.4159 8.20542L27.0896 9.28925L19.9219 9.31936C13.0976 9.34802 12.7461 9.35477 12.5841 9.4599C12.3021 9.64289 12.1929 9.85159 12.1697 10.2512C12.1521 10.555 12.1702 10.6477 12.2815 10.8214C12.3545 10.9355 12.5035 11.0846 12.6126 11.1526C12.8094 11.2753 12.867 11.2764 19.6328 11.2923C23.3848 11.3011 26.4542 11.3282 26.4538 11.3525C26.4533 11.3768 26.2897 11.9386 26.0902 12.601L25.7276 13.8052L19.7698 13.8354C13.8356 13.8653 13.8114 13.8659 13.6519 13.9914C13.3763 14.2083 13.2365 14.4839 13.2365 14.8107C13.2365 15.1741 13.3434 15.4037 13.6149 15.6236L13.8233 15.7923L19.4582 15.8082C22.5573 15.817 25.0927 15.8441 25.0923 15.8684C25.0919 15.8928 24.9568 16.3598 24.7921 16.9062L24.4926 17.8997H18.3153H12.1381L11.8125 16.9062C11.6335 16.3598 10.5006 12.8939 9.29493 9.20411C8.08931 5.51437 7.06857 2.42543 7.02659 2.33981C6.98461 2.25418 6.89038 2.12509 6.8172 2.05295C6.63367 1.87207 2.21429 0.0349642 1.89048 0.00491779C1.69885 -0.0128451 1.57863 0.0157562 1.40827 0.119504ZM12.4015 24.8151C13.2528 25.1937 13.4493 26.3663 12.7681 27.0012C12.5022 27.2488 12.2193 27.3423 11.8262 27.3121C11.2389 27.267 10.8097 26.8138 10.7557 26.1818C10.7196 25.7595 10.8051 25.4593 11.0437 25.1709C11.3703 24.776 11.964 24.6205 12.4015 24.8151ZM22.7739 24.9022C23.341 25.2166 23.5868 25.9187 23.3384 26.5146C23.1089 27.0653 22.7517 27.3194 22.2036 27.3218C21.609 27.3243 21.1519 26.934 21.009 26.3017C20.8336 25.5257 21.4354 24.7391 22.2075 24.7353C22.3871 24.7344 22.5668 24.7874 22.7739 24.9022Z" fill="#98A9C1"/>
</svg>
