<svg width="622" height="97" viewBox="0 0 622 97" fill="none" xmlns="http://www.w3.org/2000/svg">
<path d="M115.678 89.0686C107.239 89.0686 100.103 87.5248 94.2709 84.4373C88.5074 81.3497 84.1162 77.0271 81.0973 71.4695C78.1469 65.9119 76.6718 59.428 76.6718 52.0178C76.6718 44.3332 78.2842 37.6778 81.509 32.0516C84.8024 26.3567 89.5023 21.9655 95.6088 18.878C101.715 15.7904 109.057 14.2466 117.633 14.2466C122.917 14.2466 127.582 14.8641 131.63 16.0992C135.747 17.3342 139.281 19.1181 142.231 21.4509L136.365 35.9625C134.238 34.5216 132.214 33.4238 130.293 32.6691C128.44 31.8457 126.519 31.2625 124.529 30.9195C122.608 30.5764 120.378 30.4049 117.839 30.4049C110.704 30.4049 105.352 32.2574 101.784 35.9625C98.2847 39.599 96.5351 44.9507 96.5351 52.0178C96.5351 59.0163 98.1475 64.2995 101.372 67.8673C104.597 71.4352 109.709 73.2191 116.707 73.2191C118.834 73.2191 121.133 73.0133 123.603 72.6016C126.141 72.1899 128.714 71.5724 131.322 70.7491L127.925 77.5417V60.2513H112.899V47.0777H143.466V83.4081C139.555 85.2606 135.164 86.6672 130.293 87.6278C125.49 88.5883 120.618 89.0686 115.678 89.0686ZM175.371 89.0686C170.843 89.0686 166.863 88.0051 163.432 85.8781C160.002 83.6825 157.292 80.5264 155.302 76.4096C153.381 72.2929 152.42 67.4214 152.42 61.7951C152.42 56.1003 153.381 51.2288 155.302 47.1806C157.292 43.0639 160.002 39.942 163.432 37.815C166.863 35.6194 170.843 34.5216 175.371 34.5216C179.419 34.5216 183.056 35.4822 186.28 37.4034C189.574 39.3245 191.735 41.8289 192.764 44.9164H191.735L192.867 35.6537H210.466C210.26 37.9866 210.055 40.3537 209.849 42.7551C209.712 45.1566 209.643 47.5237 209.643 49.8565V87.9365H191.529L191.323 79.0855H192.558C191.529 82.1045 189.368 84.5402 186.075 86.3927C182.85 88.1767 179.282 89.0686 175.371 89.0686ZM181.237 75.4833C184.325 75.4833 186.829 74.4198 188.75 72.2929C190.672 70.0973 191.632 66.598 191.632 61.7951C191.632 56.9922 190.672 53.5273 188.75 51.4003C186.829 49.2047 184.325 48.1069 181.237 48.1069C178.15 48.1069 175.645 49.2047 173.724 51.4003C171.803 53.5273 170.843 56.9922 170.843 61.7951C170.843 66.598 171.769 70.0973 173.621 72.2929C175.542 74.4198 178.081 75.4833 181.237 75.4833ZM221.021 87.9365V49.8565C221.021 47.5237 220.952 45.1566 220.815 42.7551C220.678 40.3537 220.472 37.9866 220.198 35.6537H237.9L238.929 44.7106H237.797C239.306 41.5544 241.536 39.0844 244.487 37.3004C247.437 35.4479 250.902 34.5216 254.881 34.5216C258.724 34.5216 261.983 35.4479 264.659 37.3004C267.403 39.0844 269.393 41.9318 270.628 45.8427H268.878C270.594 42.2748 273.064 39.496 276.289 37.5063C279.582 35.5165 283.253 34.5216 287.301 34.5216C293.27 34.5216 297.73 36.3399 300.68 39.9763C303.631 43.5442 305.106 49.1361 305.106 56.7521V87.9365H286.683V57.3696C286.683 54.1448 286.203 51.8806 285.242 50.577C284.282 49.2047 282.738 48.5186 280.611 48.5186C277.935 48.5186 275.843 49.4792 274.333 51.4003C272.892 53.3215 272.172 55.9631 272.172 59.3251V87.9365H253.852V57.3696C253.852 54.1448 253.338 51.8806 252.308 50.577C251.348 49.2047 249.838 48.5186 247.78 48.5186C245.104 48.5186 243.011 49.4792 241.502 51.4003C240.061 53.3215 239.341 55.9631 239.341 59.3251V87.9365H221.021ZM343.683 89.0686C334.214 89.0686 326.838 86.6329 321.555 81.7614C316.341 76.8899 313.733 70.2002 313.733 61.6922C313.733 56.409 314.831 51.7091 317.027 47.5923C319.222 43.4756 322.31 40.2851 326.289 38.0209C330.269 35.688 334.935 34.5216 340.286 34.5216C345.57 34.5216 349.961 35.688 353.46 38.0209C357.028 40.2851 359.704 43.4413 361.488 47.4894C363.272 51.4689 364.164 56.1003 364.164 61.3835V65.2944H329.068V56.6492H350.681L348.932 58.09C348.932 54.1791 348.177 51.2974 346.667 49.4449C345.226 47.5237 343.168 46.5631 340.492 46.5631C337.405 46.5631 335.038 47.7296 333.391 50.0624C331.813 52.3266 331.024 55.7572 331.024 60.3543V62.2068C331.024 66.8038 332.156 70.1659 334.42 72.2929C336.684 74.4198 339.943 75.4833 344.197 75.4833C346.942 75.4833 349.515 75.1746 351.916 74.5571C354.386 73.9396 356.719 72.9447 358.915 71.5724L363.649 83.511C361.042 85.2949 358.023 86.6672 354.592 87.6278C351.161 88.5883 347.525 89.0686 343.683 89.0686ZM392.956 89.0686C388.084 89.0686 383.659 88.5883 379.679 87.6278C375.768 86.5986 372.441 85.2263 369.696 83.511L374.122 71.5724C376.798 73.0819 379.782 74.3169 383.076 75.2775C386.438 76.2381 389.765 76.7184 393.059 76.7184C395.666 76.7184 397.553 76.341 398.719 75.5863C399.954 74.7629 400.572 73.6994 400.572 72.3958C400.572 71.3666 400.195 70.5432 399.44 69.9257C398.685 69.3082 397.553 68.8622 396.043 68.5878L384.928 66.6323C380.537 65.809 377.106 64.1966 374.636 61.7951C372.235 59.3251 371.034 56.1346 371.034 52.2237C371.034 48.6558 371.995 45.5683 373.916 42.961C375.837 40.2851 378.582 38.2267 382.149 36.7858C385.717 35.2764 389.937 34.5216 394.808 34.5216C398.788 34.5216 402.562 34.9676 406.13 35.8596C409.766 36.7515 412.922 38.1581 415.598 40.0792L410.864 51.7091C408.737 50.2682 406.232 49.1018 403.351 48.2098C400.538 47.2493 397.896 46.769 395.426 46.769C392.476 46.769 390.383 47.215 389.148 48.1069C387.913 48.9303 387.295 49.9595 387.295 51.1945C387.295 52.1551 387.638 52.9784 388.325 53.6645C389.011 54.2821 390.108 54.728 391.618 55.0025L402.733 56.9579C407.262 57.7127 410.727 59.2908 413.128 61.6922C415.598 64.025 416.833 67.2155 416.833 71.2637C416.833 75.0374 415.804 78.2621 413.746 80.938C411.756 83.5453 408.977 85.5694 405.409 87.0103C401.841 88.3825 397.69 89.0686 392.956 89.0686ZM424.023 51.6062C424.023 44.0588 425.498 37.5063 428.448 31.9487C431.399 26.3224 435.618 21.9655 441.107 18.878C446.596 15.7904 453.08 14.2466 460.559 14.2466C468.107 14.2466 474.625 15.7904 480.114 18.878C485.603 21.9655 489.822 26.3224 492.773 31.9487C495.792 37.5063 497.301 44.0588 497.301 51.6062C497.301 59.0849 495.792 65.6374 492.773 71.2637C489.822 76.8899 485.603 81.2811 480.114 84.4373C474.625 87.5248 468.107 89.0686 460.559 89.0686C453.08 89.0686 446.596 87.5248 441.107 84.4373C435.687 81.2811 431.467 76.8899 428.448 71.2637C425.498 65.6374 424.023 59.0849 424.023 51.6062ZM443.886 51.6062C443.886 58.3988 445.259 63.7163 448.003 67.5586C450.748 71.3323 454.933 73.2191 460.559 73.2191C466.185 73.2191 470.405 71.3323 473.218 67.5586C476.031 63.7163 477.438 58.3988 477.438 51.6062C477.438 44.8135 476.031 39.5303 473.218 35.7567C470.405 31.983 466.185 30.0961 460.559 30.0961C454.933 30.0961 450.748 31.983 448.003 35.7567C445.259 39.4617 443.886 44.7449 443.886 51.6062ZM507.666 87.9365V49.8565C507.666 47.5237 507.598 45.1566 507.46 42.7551C507.323 40.3537 507.117 37.9866 506.843 35.6537H524.545L525.574 44.7106H524.442C526.157 41.4172 528.593 38.9128 531.749 37.1975C534.905 35.4136 538.473 34.5216 542.453 34.5216C548.559 34.5216 553.122 36.3399 556.141 39.9763C559.229 43.5442 560.772 49.1361 560.772 56.7521V87.9365H542.453V57.5755C542.453 54.2134 541.87 51.8806 540.703 50.577C539.537 49.2047 537.856 48.5186 535.66 48.5186C532.778 48.5186 530.446 49.4792 528.662 51.4003C526.878 53.2529 525.986 55.7229 525.986 58.8105V87.9365H507.666Z" fill="white"/>
<mask id="mask0_103_647" style="mask-type:alpha" maskUnits="userSpaceOnUse" x="0" y="18" width="101" height="71">
<path d="M100.459 18.9473H0.942513L26.3191 88.4175H100.459V18.9473Z" fill="#D9D9D9"/>
</mask>
<g mask="url(#mask0_103_647)">
<rect width="92.55" height="15.1022" transform="matrix(-1 0 0 1 93.4922 18.9473)" fill="url(#paint0_linear_103_647)"/>
<rect width="92.55" height="15.1022" transform="matrix(-1 0 0 1 93.4922 37.0698)" fill="url(#paint1_linear_103_647)"/>
<rect width="92.55" height="15.1022" transform="matrix(-1 0 0 1 93.4922 55.1924)" fill="url(#paint2_linear_103_647)"/>
<rect width="92.55" height="15.1022" transform="matrix(-1 0 0 1 93.4922 73.3149)" fill="url(#paint3_linear_103_647)"/>
</g>
<defs>
<linearGradient id="paint0_linear_103_647" x1="92.55" y1="7.55113" x2="-3.78454e-08" y2="7.55113" gradientUnits="userSpaceOnUse">
<stop stop-color="white"/>
<stop offset="1" stop-color="white" stop-opacity="0"/>
</linearGradient>
<linearGradient id="paint1_linear_103_647" x1="92.55" y1="7.55113" x2="-3.78454e-08" y2="7.55113" gradientUnits="userSpaceOnUse">
<stop stop-color="white"/>
<stop offset="1" stop-color="white" stop-opacity="0"/>
</linearGradient>
<linearGradient id="paint2_linear_103_647" x1="92.55" y1="7.55113" x2="-3.78454e-08" y2="7.55113" gradientUnits="userSpaceOnUse">
<stop stop-color="white"/>
<stop offset="1" stop-color="white" stop-opacity="0"/>
</linearGradient>
<linearGradient id="paint3_linear_103_647" x1="92.55" y1="7.55113" x2="-3.78454e-08" y2="7.55113" gradientUnits="userSpaceOnUse">
<stop stop-color="white"/>
<stop offset="1" stop-color="white" stop-opacity="0"/>
</linearGradient>
</defs>
</svg>
