<svg width="57" height="40" viewBox="0 0 57 40" fill="none" xmlns="http://www.w3.org/2000/svg">
<path d="M41.7873 36.4729C38.2617 36.4729 35.2808 35.828 32.8444 34.5382C30.4367 33.2483 28.6022 31.4426 27.3411 29.1208C26.1085 26.7991 25.4923 24.0904 25.4923 20.9948C25.4923 17.7845 26.1659 15.0042 27.513 12.6538C28.8889 10.2748 30.8523 8.44035 33.4033 7.15051C35.9543 5.86067 39.0213 5.21574 42.6042 5.21574C44.8113 5.21574 46.7604 5.47371 48.4515 5.98965C50.1713 6.50559 51.6474 7.25083 52.88 8.22538L50.4293 14.2876C49.5407 13.6857 48.6951 13.2271 47.8926 12.9118C47.1187 12.5678 46.3161 12.3242 45.4849 12.1809C44.6823 12.0376 43.7507 11.9659 42.6902 11.9659C39.7092 11.9659 37.4735 12.7398 35.983 14.2876C34.5212 15.8068 33.7903 18.0425 33.7903 20.9948C33.7903 23.9185 34.4639 26.1255 35.811 27.616C37.1582 29.1065 39.2936 29.8517 42.2173 29.8517C43.1058 29.8517 44.066 29.7658 45.0979 29.5938C46.1584 29.4218 47.2333 29.1638 48.3225 28.8199L46.9037 31.6575V24.4344H40.6264V18.9311H53.3959V34.1082C51.7621 34.8821 49.9276 35.4697 47.8926 35.871C45.8861 36.2723 43.8511 36.4729 41.7873 36.4729Z" fill="white"/>
<mask id="mask0_189_5" style="mask-type:alpha" maskUnits="userSpaceOnUse" x="0" y="7" width="33" height="30">
<path d="M32.6512 7.52393H0.9426L9.0283 36.5454H32.6512V7.52393Z" fill="#D9D9D9"/>
</mask>
<g mask="url(#mask0_189_5)">
<rect width="29.489" height="6.30902" transform="matrix(-1 0 0 1 30.4315 7.52393)" fill="url(#paint0_linear_189_5)"/>
<rect width="29.489" height="6.30902" transform="matrix(-1 0 0 1 30.4315 15.0947)" fill="url(#paint1_linear_189_5)"/>
<rect width="29.489" height="6.30902" transform="matrix(-1 0 0 1 30.4315 22.6655)" fill="url(#paint2_linear_189_5)"/>
<rect width="29.489" height="6.30902" transform="matrix(-1 0 0 1 30.4315 30.2363)" fill="url(#paint3_linear_189_5)"/>
</g>
<defs>
<linearGradient id="paint0_linear_189_5" x1="29.489" y1="3.15452" x2="-1.20586e-08" y2="3.15452" gradientUnits="userSpaceOnUse">
<stop stop-color="white"/>
<stop offset="1" stop-color="white" stop-opacity="0"/>
</linearGradient>
<linearGradient id="paint1_linear_189_5" x1="29.489" y1="3.15452" x2="-1.20586e-08" y2="3.15452" gradientUnits="userSpaceOnUse">
<stop stop-color="white"/>
<stop offset="1" stop-color="white" stop-opacity="0"/>
</linearGradient>
<linearGradient id="paint2_linear_189_5" x1="29.489" y1="3.15452" x2="-1.20586e-08" y2="3.15452" gradientUnits="userSpaceOnUse">
<stop stop-color="white"/>
<stop offset="1" stop-color="white" stop-opacity="0"/>
</linearGradient>
<linearGradient id="paint3_linear_189_5" x1="29.489" y1="3.15452" x2="-1.20586e-08" y2="3.15452" gradientUnits="userSpaceOnUse">
<stop stop-color="white"/>
<stop offset="1" stop-color="white" stop-opacity="0"/>
</linearGradient>
</defs>
</svg>
