<svg width="40" height="40" viewBox="0 0 40 40" fill="none" xmlns="http://www.w3.org/2000/svg">
<rect width="40" height="40" rx="20" transform="matrix(-1 0 0 1 40 0)" fill="#6041BA" fill-opacity="0.5"/>
<path fill-rule="evenodd" clip-rule="evenodd" d="M28 20C28 20.1473 27.9436 20.2886 27.8431 20.3928C27.7426 20.497 27.6064 20.5555 27.4643 20.5555H14.8298L18.2013 24.0505C18.2511 24.1022 18.2907 24.1635 18.3176 24.231C18.3446 24.2985 18.3584 24.3708 18.3584 24.4438C18.3584 24.5169 18.3446 24.5892 18.3176 24.6567C18.2907 24.7241 18.2511 24.7855 18.2013 24.8371C18.1515 24.8887 18.0924 24.9297 18.0273 24.9577C17.9623 24.9856 17.8925 25 17.8221 25C17.7516 25 17.6819 24.9856 17.6168 24.9577C17.5517 24.9297 17.4926 24.8887 17.4428 24.8371L13.1574 20.3933C13.1075 20.3417 13.0679 20.2804 13.0409 20.2129C13.0139 20.1454 13 20.0731 13 20C13 19.9269 13.0139 19.8546 13.0409 19.7871C13.0679 19.7196 13.1075 19.6583 13.1574 19.6067L17.4428 15.1629C17.4926 15.1113 17.5517 15.0703 17.6168 15.0423C17.6819 15.0144 17.7516 15 17.8221 15C17.8925 15 17.9623 15.0144 18.0273 15.0423C18.0924 15.0703 18.1515 15.1113 18.2013 15.1629C18.2511 15.2145 18.2907 15.2759 18.3176 15.3433C18.3446 15.4108 18.3584 15.4831 18.3584 15.5562C18.3584 15.6292 18.3446 15.7015 18.3176 15.769C18.2907 15.8365 18.2511 15.8978 18.2013 15.9495L14.8298 19.4445H27.4643C27.6064 19.4445 27.7426 19.503 27.8431 19.6072C27.9436 19.7114 28 19.8527 28 20Z" fill="black"/>
</svg>
