<svg width="29" height="29" viewBox="0 0 29 29" fill="none" xmlns="http://www.w3.org/2000/svg">
<path fill-rule="evenodd" clip-rule="evenodd" d="M10.8107 0.0345373C10.3088 0.13363 9.96141 0.54462 9.96061 1.04037C9.95991 1.46833 10.1443 1.78465 10.5137 1.98926L10.7096 2.09775H14.5658H18.422L18.5725 2.01726C18.9691 1.80508 19.1395 1.54889 19.1638 1.12817C19.1781 0.882324 19.1681 0.818029 19.0892 0.645577C18.9301 0.298077 18.6802 0.105777 18.2918 0.0321248C18.058 -0.0122127 11.0361 -0.00994642 10.8107 0.0345373ZM0.865124 2.31648C-0.0764913 2.61035 -0.116881 3.93836 0.804996 4.2939C0.982968 4.36251 1.26946 4.36397 14.5841 4.36397H28.1814L28.372 4.27778C28.624 4.16381 28.8657 3.90203 28.9482 3.65351C29.0857 3.23971 28.9413 2.75082 28.6061 2.49485C28.275 2.24206 29.4912 2.26198 14.55 2.26468C3.30062 2.26673 0.996675 2.27543 0.865124 2.31648ZM2.87015 6.27334C2.64477 6.35287 2.35122 6.65267 2.27248 6.88376C2.23878 6.98263 2.21122 7.14068 2.21122 7.23495C2.21122 7.32921 2.61286 11.6152 3.10371 16.7594C3.59457 21.9035 4.00739 26.2418 4.02102 26.4C4.12772 27.6354 4.9452 28.5983 6.15884 28.9181L6.46953 29H14.5841C22.3913 29 22.7083 28.9974 22.9545 28.9317C23.8308 28.6979 24.5251 28.1294 24.874 27.3599C25.0203 27.037 25.0857 26.7563 25.1288 26.265C25.1493 26.03 25.5619 21.7134 26.0456 16.6726C26.5765 11.1383 26.9198 7.40608 26.912 7.25158C26.8967 6.95076 26.8168 6.76423 26.6177 6.56517C26.3235 6.27096 25.854 6.18514 25.4664 6.35467C25.2105 6.46662 24.9637 6.74055 24.8934 6.99074C24.8644 7.094 24.4288 11.4962 23.9253 16.7734C23.1112 25.3063 23.0015 26.3849 22.9341 26.5185C22.8503 26.6848 22.7258 26.7906 22.5378 26.8554C22.4443 26.8877 20.4701 26.8981 14.5512 26.8975C7.02534 26.8967 6.68255 26.8938 6.5423 26.8301C6.36711 26.7505 6.17422 26.5414 6.14407 26.3984C6.13212 26.3416 5.71159 21.9775 5.20955 16.7003C4.60322 10.3264 4.27678 7.03888 4.23708 6.90726C4.159 6.64818 3.87891 6.35905 3.62078 6.27111C3.39953 6.19574 3.08741 6.19665 2.87015 6.27334ZM10.3695 8.69757C10.1349 8.8148 9.96916 8.98812 9.85921 9.23131C9.79974 9.36282 9.79576 9.78375 9.79576 15.9535V22.5355L9.90607 22.7511C10.2979 23.5174 11.3978 23.5106 11.7765 22.7395L11.8792 22.5303V15.9509C11.8792 9.78361 11.8752 9.36282 11.8158 9.23131C11.6342 8.82985 11.2643 8.58572 10.8375 8.58572C10.6382 8.58572 10.5521 8.6063 10.3695 8.69757ZM17.87 8.67327C17.6385 8.78109 17.4568 8.95951 17.3411 9.19267L17.2524 9.37159V15.9509V22.5303L17.3309 22.7002C17.4262 22.9063 17.6422 23.1294 17.8384 23.2242C17.9197 23.2635 18.0905 23.3009 18.2271 23.3092C18.6843 23.3371 19.038 23.1368 19.2331 22.7395L19.3358 22.5303L19.3454 16.0256C19.3537 10.3548 19.3479 9.49697 19.3005 9.33383C19.1259 8.7331 18.4308 8.41218 17.87 8.67327Z" fill="#98A9C1"/>
</svg>
