<svg width="40" height="40" viewBox="0 0 40 40" fill="none" xmlns="http://www.w3.org/2000/svg">
<rect width="40" height="40" rx="20" fill="#6041BA" fill-opacity="0.5"/>
<path fill-rule="evenodd" clip-rule="evenodd" d="M12 20C12 20.1473 12.0564 20.2886 12.1569 20.3928C12.2574 20.497 12.3936 20.5555 12.5357 20.5555H25.1702L21.7987 24.0505C21.7489 24.1022 21.7093 24.1635 21.6824 24.231C21.6554 24.2985 21.6416 24.3708 21.6416 24.4438C21.6416 24.5169 21.6554 24.5892 21.6824 24.6567C21.7093 24.7241 21.7489 24.7855 21.7987 24.8371C21.8485 24.8887 21.9076 24.9297 21.9727 24.9577C22.0377 24.9856 22.1075 25 22.1779 25C22.2484 25 22.3181 24.9856 22.3832 24.9577C22.4483 24.9297 22.5074 24.8887 22.5572 24.8371L26.8426 20.3933C26.8925 20.3417 26.9321 20.2804 26.9591 20.2129C26.9861 20.1454 27 20.0731 27 20C27 19.9269 26.9861 19.8546 26.9591 19.7871C26.9321 19.7196 26.8925 19.6583 26.8426 19.6067L22.5572 15.1629C22.5074 15.1113 22.4483 15.0703 22.3832 15.0423C22.3181 15.0144 22.2484 15 22.1779 15C22.1075 15 22.0377 15.0144 21.9727 15.0423C21.9076 15.0703 21.8485 15.1113 21.7987 15.1629C21.7489 15.2145 21.7093 15.2759 21.6824 15.3433C21.6554 15.4108 21.6416 15.4831 21.6416 15.5562C21.6416 15.6292 21.6554 15.7015 21.6824 15.769C21.7093 15.8365 21.7489 15.8978 21.7987 15.9495L25.1702 19.4445H12.5357C12.3936 19.4445 12.2574 19.503 12.1569 19.6072C12.0564 19.7114 12 19.8527 12 20Z" fill="black"/>
</svg>
